Coordinates
version=1
nRows=10
nColumns=40
inDegrees=yes

Units are S.I. units (second, meters, Newtons, ...)
Angles are in degrees.

endheader
time	pelvis_tilt	pelvis_list	pelvis_rotation	pelvis_tx	pelvis_ty	pelvis_tz	hip_flexion_r	hip_adduction_r	hip_rotation_r	knee_angle_r	knee_angle_r_beta	ankle_angle_r	subtalar_angle_r	mtp_angle_r	hip_flexion_l	hip_adduction_l	hip_rotation_l	knee_angle_l	knee_angle_l_beta	ankle_angle_l	subtalar_angle_l	mtp_angle_l	lumbar_extension	lumbar_bending	lumbar_rotation	arm_flex_r	arm_add_r	arm_rot_r	elbow_flex_r	pro_sup_r	wrist_flex_r	wrist_dev_r	arm_flex_l	arm_add_l	arm_rot_l	elbow_flex_l	pro_sup_l	wrist_flex_l	wrist_dev_l
     14.96000000	     -4.41699353	     -5.26175950	     -2.99780415	      1.04552063	      0.92344741	      0.56808646	     14.09492237	      7.27226562	     -8.76343545	     22.59263537	     22.59263537	     14.37489343	     -4.03769437	     -0.27845673	     12.47502776	    -15.12028329	     -2.48943106	     46.32641991	     46.32641991	     12.09632330	    -17.97267109	      4.42973812	     -8.80651228	      6.19996469	      0.99346303	      3.77027299	    -14.70564419	     -1.17685466	     35.44766826	     45.35077362	      0.00000000	      0.00000000	     19.95422290	    -13.00225615	     -2.44915803	     63.22621273	     45.85911730	      0.00000000	      0.00000000
     14.98407143	     -4.12875406	     -5.34568645	     -2.31375269	      1.04379325	      0.92135141	      0.56964997	     14.29167209	      7.37491587	     -8.95320056	     23.90193798	     23.90193798	     15.07648458	     -5.12712341	     -0.54577274	     14.58216437	    -15.79371712	     -2.50124695	     49.67595537	     49.67595537	     11.98165542	    -18.64592446	      5.25708745	     -9.04168286	      6.27396894	      0.96755579	      5.94010093	    -14.87784276	     -1.35078442	     36.20259200	     45.35320915	      0.00000000	      0.00000000	     16.98174018	    -12.57306079	     -1.76406226	     60.68742086	     45.77178701	      0.00000000	      0.00000000
     15.00814286	     -3.65507076	     -5.44762650	     -1.57457703	      1.04201342	      0.91922390	      0.57121586	     14.26337622	      7.54339661	     -9.00951545	     25.18145111	     25.18145111	     15.91274409	     -6.38245563	     -0.75776659	     16.50276284	    -16.52200430	     -2.47355852	     52.73294827	     52.73294827	     12.28652889	    -19.04881194	      6.80873977	     -9.54629297	      6.37496128	      1.00363479	      8.31350979	    -15.16890234	     -1.52933073	     37.00532662	     45.35389108	      0.00000000	      0.00000000	     14.05065862	    -12.08490328	     -1.02743946	     57.87975140	     45.67552484	      0.00000000	      0.00000000
     15.03221429	     -3.28565353	     -5.42363627	     -0.75740362	      1.03994634	      0.91711986	      0.57239393	     14.41371777	      7.64570671	     -8.83468456	     26.52207197	     26.52207197	     16.72953528	     -8.22644998	     -0.00450882	     18.84427686	    -16.69293949	     -1.63276229	     55.88287796	     55.88287796	     15.49944637	    -19.18735396	     16.72506081	     -9.72624108	      6.35548449	      1.30426590	     11.00709878	    -15.46836525	     -1.52584680	     36.64681019	     45.41453428	      0.00000000	      0.00000000	     12.56732337	    -11.31747916	      0.62832582	     51.16095214	     45.55929003	      0.00000000	      0.00000000
     15.05628571	     -2.87711004	     -5.44817601	      0.16499526	      1.03785331	      0.91480814	      0.57341214	     14.48353237	      7.72959344	     -8.99138308	     27.79715173	     27.79715173	     17.48394609	     -9.61718828	     -0.06454175	     20.79907493	    -17.18173533	     -1.26258049	     57.80420270	     57.80420270	     15.86757268	    -19.38000207	     17.88078051	    -10.10268370	      6.36431569	      0.99114536	     13.60353350	    -15.62238217	     -1.89771281	     37.92710412	     45.41028096	      0.00000000	      0.00000000	      9.52279733	    -11.06319070	      1.31843920	     48.33576477	     45.47012604	      0.00000000	      0.00000000
     15.08035714	     -2.37632850	     -5.47205127	      1.14858309	      1.03563683	      0.91295675	      0.57406215	     14.32987057	      7.88888370	     -8.98537919	     28.79469130	     28.79469130	     18.22810922	    -11.23557945	      0.55457033	     22.66352211	    -17.45101563	     -0.60803525	     59.17188238	     59.17188238	     17.22970044	    -19.47580221	     21.46398247	    -10.56425987	      6.39895018	      1.31334665	     16.21122065	    -16.00487415	     -2.39259237	     38.32963918	     45.45930936	      0.00000000	      0.00000000	      7.77389370	    -10.44928141	      2.49711008	     43.40212191	     45.37526990	      0.00000000	      0.00000000
     15.10442857	     -2.00918829	     -5.40617947	      2.22786717	      1.03328589	      0.91118818	      0.57428155	     14.26400046	      7.88279779	     -9.21101656	     29.65906436	     29.65906436	     18.80968047	    -12.60043052	      0.63725533	     24.48237195	    -17.50828586	      0.02820477	     59.60489258	     59.60489258	     17.58579497	    -19.54069495	     21.90103136	    -10.90864847	      6.32826413	      1.12573972	     18.80004722	    -16.25158129	     -2.82662295	     39.60561288	     45.45621125	      0.00000000	      0.00000000	      5.07334127	    -10.19290072	      3.08350428	     40.87625308	     45.28657530	      0.00000000	      0.00000000
     15.12850000	     -1.65715050	     -5.28975625	      3.34652478	      1.03078897	      0.91001605	      0.57402123	     14.07036970	      7.81852744	     -9.44589204	     30.23190055	     30.23190055	     19.26516449	    -13.88469051	      0.83315244	     26.14880960	    -17.28912696	      0.72674438	     59.24282455	     59.24282455	     17.97792190	    -19.57309590	     22.32084835	    -11.27836759	      6.22154679	      1.11841975	     21.37635649	    -16.57357841	     -3.25185272	     40.77930408	     45.45477588	      0.00000000	      0.00000000	      2.69309223	     -9.94200388	      3.64996784	     38.42754447	     45.19594482	      0.00000000	      0.00000000
     15.15257143	     -1.40857661	     -5.06926352	      4.49875353	      1.02814311	      0.90945199	      0.57327529	     13.83943893	      7.60972442	     -9.75920788	     30.52312289	     30.52312289	     19.58207199	    -14.98319144	      1.17663265	     27.67110711	    -16.69577526	      1.47814203	     58.06910908	     58.06910908	     18.25614918	    -19.58522817	     22.63351973	    -11.53420801	      6.04019956	      1.04279273	     24.02427327	    -16.87181503	     -3.76017623	     42.04745499	     45.45381073	      0.00000000	      0.00000000	      0.46202176	     -9.74309244	      4.28295387	     35.88342117	     45.09543845	      0.00000000	      0.00000000
     15.17664286	     -1.28409077	     -4.77648276	      5.64190967	      1.02535749	      0.90951111	      0.57212485	     13.55827197	      7.26377290	    -10.21454427	     30.49214776	     30.49214776	     19.82831455	    -15.69408515	      1.60715004	     28.99324309	    -15.79425847	      2.22276492	     56.10525288	     56.10525288	     18.27393044	    -19.57151337	     22.56595231	    -11.69440477	      5.76435101	      1.12619609	     26.53971412	    -17.25399391	     -4.37535367	     43.35968529	     45.45544725	      0.00000000	      0.00000000	     -1.54727905	     -9.57584520	      4.96182284	     33.57607267	     44.98893353	      0.00000000	      0.00000000
